<svg xmlns="http://www.w3.org/2000/svg" viewBox="0 0 640 480" role="img" aria-labelledby="title desc">
  <title id="title">Wild Stallion Academy fish field guide illustration</title>
  <desc id="desc">A warm field-guide style fish illustration on parchment.</desc>
  <defs>
    <linearGradient id="paper" x1="0" y1="0" x2="1" y2="1">
      <stop offset="0%" stop-color="#f8f0de"/>
      <stop offset="100%" stop-color="#e7d1aa"/>
    </linearGradient>
    <linearGradient id="fishBody" x1="0" y1="0" x2="1" y2="1">
      <stop offset="0%" stop-color="#6b8d73"/>
      <stop offset="100%" stop-color="#375447"/>
    </linearGradient>
  </defs>
  <rect width="640" height="480" rx="30" fill="url(#paper)"/>
  <rect x="24" y="24" width="592" height="432" rx="24" fill="none" stroke="#7b5938" stroke-opacity=".28" stroke-dasharray="6 8"/>
  <ellipse cx="286" cy="236" rx="144" ry="88" fill="url(#fishBody)" stroke="#2d4137" stroke-width="8"/>
  <path d="M420 236c52-58 106-74 148-78-26 34-38 60-38 78s12 44 38 78c-42-4-96-20-148-78Z" fill="#486957" stroke="#2d4137" stroke-width="8"/>
  <path d="M252 154c20-38 52-62 90-76-8 34-4 60 12 82" fill="#5c7d67" stroke="#2d4137" stroke-width="8" stroke-linecap="round" stroke-linejoin="round"/>
  <path d="M258 316c18 34 52 56 96 68-12-26-14-50-8-78" fill="#5c7d67" stroke="#2d4137" stroke-width="8" stroke-linecap="round" stroke-linejoin="round"/>
  <circle cx="204" cy="214" r="14" fill="#1d221f"/>
  <circle cx="208" cy="210" r="4" fill="#f8f0de"/>
  <path d="M150 242c18 10 42 14 70 10" stroke="#2d4137" stroke-width="7" stroke-linecap="round"/>
  <path d="M182 196c54 18 104 20 150 4" stroke="#d7e1c7" stroke-opacity=".65" stroke-width="6" stroke-linecap="round"/>
  <path d="M182 236c56 18 110 18 164 0" stroke="#d7e1c7" stroke-opacity=".55" stroke-width="6" stroke-linecap="round"/>
  <path d="M182 276c56 12 108 10 156-6" stroke="#d7e1c7" stroke-opacity=".5" stroke-width="6" stroke-linecap="round"/>
  <text x="320" y="426" text-anchor="middle" font-family="Georgia, serif" font-size="28" fill="#4a3321">Fish of the Day</text>
</svg>
