<svg width="240" height="240" viewBox="0 0 240 240" fill="none" xmlns="http://www.w3.org/2000/svg">
  <rect width="240" height="240" fill="#F4E9D2"/>
  <g opacity="0.18">
    <circle cx="28" cy="36" r="1.2" fill="#A88862"/>
    <circle cx="66" cy="48" r="1.4" fill="#8A6D4D"/>
    <circle cx="130" cy="26" r="1.1" fill="#8A6D4D"/>
    <circle cx="188" cy="42" r="1.3" fill="#A88862"/>
    <circle cx="214" cy="76" r="1.2" fill="#8A6D4D"/>
    <circle cx="46" cy="92" r="1.1" fill="#8A6D4D"/>
    <circle cx="102" cy="74" r="1.4" fill="#A88862"/>
    <circle cx="154" cy="96" r="1.2" fill="#8A6D4D"/>
    <circle cx="86" cy="132" r="1.2" fill="#8A6D4D"/>
    <circle cx="176" cy="128" r="1.4" fill="#A88862"/>
    <circle cx="30" cy="154" r="1.1" fill="#8A6D4D"/>
    <circle cx="136" cy="170" r="1.2" fill="#8A6D4D"/>
    <circle cx="206" cy="164" r="1.3" fill="#8A6D4D"/>
    <circle cx="54" cy="196" r="1.4" fill="#A88862"/>
    <circle cx="112" cy="214" r="1.1" fill="#8A6D4D"/>
    <circle cx="184" cy="204" r="1.3" fill="#A88862"/>
  </g>
  <g opacity="0.08" stroke="#7B5C3D" stroke-width="1">
    <path d="M16 54C48 34 84 34 118 48C156 64 192 64 224 46"/>
    <path d="M20 136C60 116 94 116 132 132C166 146 196 146 224 132"/>
    <path d="M14 204C54 184 92 184 128 198C164 212 194 212 226 198"/>
  </g>
</svg>
